<?xml version="1.0" encoding="utf-8"?>
<!-- Generator: Adobe Illustrator 23.0.4, SVG Export Plug-In . SVG Version: 6.00 Build 0)  -->
<svg version="1.1" id="Layer_1" xmlns="http://www.w3.org/2000/svg" xmlns:xlink="http://www.w3.org/1999/xlink" x="0px" y="0px"
	 viewBox="0 0 280 70" style="enable-background:new 0 0 280 70;" xml:space="preserve">
<style type="text/css">
	.st0{fill:#38434F;}
	.st1{opacity:0.97;fill:#FFFFFF;}
	.st2{opacity:0.25;fill:#38434F;}
	.st3{fill:#FFFFFF;}
</style>
<rect class="st0" width="280" height="70"/>
<path class="st1" d="M53.55,9.38c-1.62-0.76-3.46-1.1-5.34-0.91l-29.56,6.28c-4.86,1.59-7.84,6.63-6.76,11.74l5.83,27.43
	c0.41,1.94,1.35,3.63,2.64,4.95C42.76,53.64,57.19,31.94,53.55,9.38z"/>
<path class="st2" d="M53.55,9.38c-1.62-0.76-3.46-1.1-5.34-0.91l-29.56,6.28c-4.86,1.59-7.84,6.63-6.76,11.74l5.83,27.43
	c0.41,1.94,1.35,3.63,2.64,4.95C42.76,53.64,57.19,31.94,53.55,9.38z"/>
<path class="st3" d="M53.55,9.38c3.64,22.56-10.79,44.26-33.19,49.49c2.35,2.42,5.85,3.61,9.39,2.86l27.43-5.83
	c5.48-1.16,8.98-6.55,7.81-12.03l-5.83-27.43C58.47,13.22,56.32,10.68,53.55,9.38z"/>
<g>
	
		<rect x="33.07" y="24.45" transform="matrix(3.267950e-07 1 -1 3.267950e-07 73.6275 -3.2568)" class="st0" width="10.74" height="21.48"/>
	<rect x="38.44" y="42.17" class="st0" width="10.74" height="10.74"/>
	<path class="st0" d="M43.81,28.4L43.81,28.4c-2.97,0-5.37-2.4-5.37-5.37v0c0-2.97,2.4-5.37,5.37-5.37h0c2.97,0,5.37,2.4,5.37,5.37
		v0C49.18,25.99,46.78,28.4,43.81,28.4z"/>
</g>
<path class="st3" d="M75.07,25.55h1.87l2.64-8.04c0.91,0.27,1.75,0.61,2.52,1.04c0.77,0.43,1.36,0.92,1.76,1.47
	c0.4,0.55,0.6,1.91,0.6,4.09v1.44h9.03c0.3,0.71,0.45,1.47,0.45,2.27c0,0.68-0.12,1.13-0.37,1.36c-0.25,0.23-0.73,0.35-1.44,0.35
	h-7.66v10.55c0,3.06,0.26,5.15,0.77,6.25c0.52,1.1,1.38,1.68,2.58,1.72c1.2,0.04,2.67-0.38,4.39-1.27c0.52,0.69,0.77,1.49,0.77,2.38
	c0,1.21-0.64,2.03-1.91,2.44c-1.27,0.42-3.25,0.63-5.94,0.63c-2.94,0-5.03-0.59-6.29-1.76s-1.88-3.45-1.88-6.84v-4.65
	c0-2.94-0.09-6.09-0.27-9.45h-2.72c-0.32-0.77-0.48-1.54-0.48-2.32c0-0.6,0.12-1.03,0.36-1.28C74.09,25.68,74.5,25.55,75.07,25.55z"
	/>
<path class="st3" d="M122.59,25.55h1.87l2.64-8.04c0.91,0.27,1.75,0.61,2.52,1.04c0.77,0.43,1.36,0.92,1.76,1.47
	c0.4,0.55,0.6,1.91,0.6,4.09v1.44h9.03c0.3,0.71,0.45,1.47,0.45,2.27c0,0.68-0.12,1.13-0.37,1.36c-0.25,0.23-0.73,0.35-1.44,0.35
	h-7.66v10.55c0,3.06,0.26,5.15,0.77,6.25c0.52,1.1,1.38,1.68,2.58,1.72c1.2,0.04,2.67-0.38,4.39-1.27c0.52,0.69,0.77,1.49,0.77,2.38
	c0,1.21-0.64,2.03-1.91,2.44c-1.27,0.42-3.25,0.63-5.94,0.63c-2.94,0-5.03-0.59-6.29-1.76c-1.26-1.17-1.88-3.45-1.88-6.84v-4.65
	c0-2.94-0.09-6.09-0.27-9.45h-2.72c-0.32-0.77-0.48-1.54-0.48-2.32c0-0.6,0.12-1.03,0.36-1.28
	C121.62,25.68,122.02,25.55,122.59,25.55z"/>
<path class="st3" d="M161.22,49.79c-1.91,1.49-4.52,2.7-8.99,2.7c-7.92,0-12.02-4.33-12.02-13.51c0-8.81,4.89-13.37,11.74-13.37
	c6.43,0,10.07,4.1,10.07,10.39c0,1.3-0.05,2.7-0.28,4.57h-15.89c0.19,4.94,2.33,7.27,7.04,7.27c2.75,0,4.8-1.21,5.83-2.19
	L161.22,49.79z M145.94,36.56h10.62v-1.03c0-3.54-1.54-5.45-4.85-5.45C148.5,30.08,146.13,32.32,145.94,36.56z"/>
<path class="st3" d="M170.61,16.71v27.91c0,2.05,0.84,2.8,2.38,2.8c0.65,0,1.07-0.09,1.4-0.23v4.61c-0.89,0.37-1.96,0.61-3.31,0.61
	c-3.96,0-6.2-2.33-6.2-6.29v-29.4H170.61z"/>
<path class="st3" d="M183.32,16.71v27.91c0,2.05,0.84,2.8,2.38,2.8c0.65,0,1.07-0.09,1.4-0.23v4.61c-0.89,0.37-1.96,0.61-3.31,0.61
	c-3.96,0-6.2-2.33-6.2-6.29v-29.4H183.32z"/>
<path class="st3" d="M208.92,33.95v10.9c0,1.77,0.61,2.8,2.05,2.8h0.7v4.01c-0.84,0.51-1.77,0.65-2.66,0.65
	c-2.52,0-3.96-1.26-4.71-2.94h-0.19c-1.07,1.35-3.03,3.12-7.04,3.12c-4.94,0-7.6-3.45-7.6-7.08c0-5.87,5.5-8.67,14.03-8.34v-2.33
	c0-3.4-1.77-4.38-4.38-4.38c-2.84,0-4.29,1.58-4.99,2.98l-4.1-3.08c0.98-1.35,3.49-4.61,9.09-4.61
	C205.38,25.65,208.92,27.98,208.92,33.95z M203.51,41.08c-5.17-0.28-8.39,0.93-8.39,3.82c0,1.77,1.21,3.12,3.45,3.12
	c2.19,0,4.01-1.12,4.94-2.47V41.08z"/>
<path class="st3" d="M111.84,25.6v18.17c-0.29,2.12-2.07,4.42-5.43,4.42c-2.98,0-4.57-1.73-4.57-5.24V25.6h-5.96v18.08
	c0.05,6.25,2.93,9.23,8.61,9.23c3.75,0,6.01-1.54,7.26-3.13h0.19l5.82,2.6V25.6H111.84z"/>
</svg>
