<?xml version="1.0" encoding="utf-8"?>
<!-- Generator: Adobe Illustrator 23.0.4, SVG Export Plug-In . SVG Version: 6.00 Build 0)  -->
<svg version="1.1" id="Layer_1" xmlns="http://www.w3.org/2000/svg" xmlns:xlink="http://www.w3.org/1999/xlink" x="0px" y="0px"
	 viewBox="0 0 160 50" style="enable-background:new 0 0 160 50;" xml:space="preserve">
<style type="text/css">
	.st0{fill:#38434F;}
	.st1{opacity:0.97;fill:#FFFFFF;}
	.st2{opacity:0.25;fill:#38434F;}
	.st3{fill:#FFFFFF;}
	.st4{font-family:'Kefa-Bold';}
	.st5{font-size:30px;}
</style>
<rect x="-0.13" class="st0" width="160" height="50"/>
<path class="st1" d="M39.12,6.7c-1.16-0.55-2.47-0.79-3.81-0.65l-21.12,4.49c-3.47,1.14-5.6,4.73-4.83,8.39l4.16,19.59
	c0.29,1.38,0.97,2.59,1.89,3.54C31.41,38.31,41.72,22.82,39.12,6.7z"/>
<path class="st2" d="M39.12,6.7c-1.16-0.55-2.47-0.79-3.81-0.65l-21.12,4.49c-3.47,1.14-5.6,4.73-4.83,8.39l4.16,19.59
	c0.29,1.38,0.97,2.59,1.89,3.54C31.41,38.31,41.72,22.82,39.12,6.7z"/>
<path class="st3" d="M39.12,6.7c2.6,16.12-7.71,31.61-23.71,35.35c1.68,1.73,4.18,2.58,6.71,2.04l19.59-4.16
	c3.91-0.83,6.41-4.68,5.58-8.59l-4.16-19.59C42.64,9.44,41.1,7.63,39.12,6.7z"/>
<g>
	
		<rect x="24.5" y="17.46" transform="matrix(3.267949e-07 1 -1 3.267949e-07 53.4647 -3.2)" class="st0" width="7.67" height="15.34"/>
	<rect x="28.33" y="30.12" class="st0" width="7.67" height="7.67"/>
	<path class="st0" d="M32.17,20.28L32.17,20.28c-2.12,0-3.84-1.72-3.84-3.84v0c0-2.12,1.72-3.84,3.84-3.84h0
		c2.12,0,3.84,1.72,3.84,3.84v0C36,18.57,34.29,20.28,32.17,20.28z"/>
</g>
<path class="st3" d="M143.85,33.26"/>
<path class="st0" d="M61.21,21.09"/>
<text transform="matrix(1 0 0 1 52.0585 35.9506)" class="st3 st4 st5">Nivelo</text>
</svg>
