<?xml version="1.0" encoding="utf-8"?>
<!-- Generator: Adobe Illustrator 23.0.4, SVG Export Plug-In . SVG Version: 6.00 Build 0)  -->
<svg version="1.1" id="Layer_1" xmlns="http://www.w3.org/2000/svg" xmlns:xlink="http://www.w3.org/1999/xlink" x="0px" y="0px"
	 viewBox="0 0 160 50" style="enable-background:new 0 0 160 50;" xml:space="preserve">
<style type="text/css">
	.st0{fill:#38434F;}
	.st1{opacity:0.97;fill:#FFFFFF;}
	.st2{opacity:0.25;fill:#38434F;}
	.st3{fill:#FFFFFF;}
</style>
<rect x="-0.13" class="st0" width="160" height="50"/>
<path class="st1" d="M39.12,6.7c-1.16-0.55-2.47-0.79-3.81-0.65l-21.12,4.49c-3.47,1.14-5.6,4.73-4.83,8.39l4.16,19.59
	c0.29,1.38,0.97,2.59,1.89,3.54C31.41,38.31,41.72,22.82,39.12,6.7z"/>
<path class="st2" d="M39.12,6.7c-1.16-0.55-2.47-0.79-3.81-0.65l-21.12,4.49c-3.47,1.14-5.6,4.73-4.83,8.39l4.16,19.59
	c0.29,1.38,0.97,2.59,1.89,3.54C31.41,38.31,41.72,22.82,39.12,6.7z"/>
<path class="st3" d="M39.12,6.7c2.6,16.12-7.71,31.61-23.71,35.35c1.68,1.73,4.18,2.58,6.71,2.04l19.59-4.16
	c3.91-0.83,6.41-4.68,5.58-8.59l-4.16-19.59C42.64,9.44,41.1,7.63,39.12,6.7z"/>
<g>
	
		<rect x="24.5" y="17.46" transform="matrix(3.267949e-07 1 -1 3.267949e-07 53.4647 -3.2)" class="st0" width="7.67" height="15.34"/>
	<rect x="28.33" y="30.12" class="st0" width="7.67" height="7.67"/>
	<path class="st0" d="M32.17,20.28L32.17,20.28c-2.12,0-3.84-1.72-3.84-3.84v0c0-2.12,1.72-3.84,3.84-3.84h0
		c2.12,0,3.84,1.72,3.84,3.84v0C36,18.57,34.29,20.28,32.17,20.28z"/>
</g>
<path class="st3" d="M54.49,18.25h1.34l1.89-5.74c0.65,0.19,1.25,0.44,1.8,0.74c0.55,0.31,0.97,0.66,1.26,1.05
	c0.29,0.39,0.43,1.37,0.43,2.92v1.03h6.45c0.22,0.51,0.32,1.05,0.32,1.62c0,0.48-0.09,0.81-0.27,0.97
	c-0.18,0.17-0.52,0.25-1.03,0.25h-5.47v7.53c0,2.19,0.18,3.68,0.55,4.46c0.37,0.79,0.98,1.2,1.84,1.23c0.86,0.03,1.9-0.27,3.14-0.91
	c0.37,0.5,0.55,1.06,0.55,1.7c0,0.86-0.45,1.45-1.36,1.75c-0.91,0.3-2.32,0.45-4.24,0.45c-2.1,0-3.6-0.42-4.49-1.26
	s-1.34-2.47-1.34-4.88v-3.32c0-2.1-0.06-4.35-0.19-6.75h-1.95c-0.23-0.55-0.34-1.1-0.34-1.66c0-0.43,0.09-0.74,0.26-0.92
	C53.8,18.34,54.09,18.25,54.49,18.25z"/>
<path class="st3" d="M88.44,18.25h1.34l1.89-5.74c0.65,0.19,1.25,0.44,1.8,0.74c0.55,0.31,0.97,0.66,1.26,1.05
	c0.29,0.39,0.43,1.37,0.43,2.92v1.03h6.45c0.22,0.51,0.32,1.05,0.32,1.62c0,0.48-0.09,0.81-0.27,0.97
	c-0.18,0.17-0.52,0.25-1.03,0.25h-5.47v7.53c0,2.19,0.18,3.68,0.55,4.46c0.37,0.79,0.98,1.2,1.84,1.23c0.86,0.03,1.9-0.27,3.14-0.91
	c0.37,0.5,0.55,1.06,0.55,1.7c0,0.86-0.45,1.45-1.36,1.75c-0.91,0.3-2.32,0.45-4.24,0.45c-2.1,0-3.6-0.42-4.49-1.26
	c-0.9-0.84-1.34-2.47-1.34-4.88v-3.32c0-2.1-0.06-4.35-0.19-6.75h-1.95c-0.23-0.55-0.34-1.1-0.34-1.66c0-0.43,0.09-0.74,0.26-0.92
	C87.74,18.34,88.03,18.25,88.44,18.25z"/>
<path class="st3" d="M116.03,35.57c-1.36,1.07-3.23,1.93-6.42,1.93c-5.66,0-8.59-3.1-8.59-9.65c0-6.29,3.5-9.55,8.39-9.55
	c4.59,0,7.19,2.93,7.19,7.42c0,0.93-0.03,1.93-0.2,3.26h-11.35c0.13,3.53,1.66,5.19,5.03,5.19c1.96,0,3.43-0.87,4.16-1.56
	L116.03,35.57z M105.12,26.11h7.59v-0.73c0-2.53-1.1-3.89-3.46-3.89C106.95,21.49,105.25,23.08,105.12,26.11z"/>
<path class="st3" d="M122.74,11.93v19.94c0,1.46,0.6,2,1.7,2c0.47,0,0.77-0.07,1-0.17V37c-0.63,0.27-1.4,0.43-2.36,0.43
	c-2.83,0-4.43-1.66-4.43-4.49v-21H122.74z"/>
<path class="st3" d="M131.82,11.93v19.94c0,1.46,0.6,2,1.7,2c0.47,0,0.77-0.07,1-0.17V37c-0.63,0.27-1.4,0.43-2.36,0.43
	c-2.83,0-4.43-1.66-4.43-4.49v-21H131.82z"/>
<path class="st3" d="M150.1,24.25v7.79c0,1.26,0.43,2,1.46,2h0.5v2.86c-0.6,0.37-1.26,0.47-1.9,0.47c-1.8,0-2.83-0.9-3.36-2.1h-0.13
	c-0.77,0.97-2.16,2.23-5.03,2.23c-3.53,0-5.43-2.46-5.43-5.06c0-4.19,3.93-6.19,10.02-5.96v-1.66c0-2.43-1.26-3.13-3.13-3.13
	c-2.03,0-3.06,1.13-3.56,2.13l-2.93-2.2c0.7-0.97,2.5-3.3,6.49-3.3C147.57,18.32,150.1,19.99,150.1,24.25z M146.24,29.34
	c-3.69-0.2-5.99,0.67-5.99,2.73c0,1.26,0.87,2.23,2.46,2.23c1.56,0,2.86-0.8,3.53-1.76V29.34z"/>
<path class="st3" d="M80.76,18.29v12.98c-0.21,1.51-1.48,3.16-3.88,3.16c-2.13,0-3.26-1.24-3.26-3.74v-12.4h-4.26V31.2
	c0.03,4.46,2.09,6.59,6.15,6.59c2.68,0,4.29-1.1,5.19-2.23h0.14l4.16,1.85V18.29H80.76z"/>
</svg>
